PathFileType	4	(X/Y/Z)	/Users/itak/Documents/Research/Walk-IL/dataset/trc/00439_00167.trc
DataRate	CameraRate	NumFrames	NumMarkers	Units	OrigDataRate	OrigDataStartFrame	OrigNumFrames
100.000000	100.000000	4	53	mm	100.000000	196	523
Frame#	Time	RPSI			LPSI			L3			STRN			T10			C7			CLAV			RBAK			LBAK			LSHO			LUPA			LAEL			LAOL			LWTS			LWPS			LFRA			LIFD			LHPS			LHTS			RSHO			RUPA			RAEL			RAOL			RWTS			RWPS			RFRA			RIFD			RHTS			RHPS			RBHD			LFHD			RFHD			LBHD			LHIP			RHIP			RASI			LASI			LKNE			LTHI			LANK			LTIP			LTOE			LMT1			LMT5			LHEE			RKNE			RTHI			RANK			RTIP			RTOE			RMT1			RMT5			RHEE			
		X1	Y1	Z1	X2	Y2	Z2	X3	Y3	Z3	X4	Y4	Z4	X5	Y5	Z5	X6	Y6	Z6	X7	Y7	Z7	X8	Y8	Z8	X9	Y9	Z9	X10	Y10	Z10	X11	Y11	Z11	X12	Y12	Z12	X13	Y13	Z13	X14	Y14	Z14	X15	Y15	Z15	X16	Y16	Z16	X17	Y17	Z17	X18	Y18	Z18	X19	Y19	Z19	X20	Y20	Z20	X21	Y21	Z21	X22	Y22	Z22	X23	Y23	Z23	X24	Y24	Z24	X25	Y25	Z25	X26	Y26	Z26	X27	Y27	Z27	X28	Y28	Z28	X29	Y29	Z29	X30	Y30	Z30	X31	Y31	Z31	X32	Y32	Z32	X33	Y33	Z33	X34	Y34	Z34	X35	Y35	Z35	X36	Y36	Z36	X37	Y37	Z37	X38	Y38	Z38	X39	Y39	Z39	X40	Y40	Z40	X41	Y41	Z41	X42	Y42	Z42	X43	Y43	Z43	X44	Y44	Z44	X45	Y45	Z45	X46	Y46	Z46	X47	Y47	Z47	X48	Y48	Z48	X49	Y49	Z49	X50	Y50	Z50	X51	Y51	Z51	X52	Y52	Z52	X53	Y53	Z53	

197	1.96	-637.560546875	946.4033203125	-85.298828125	-573.4677734375	942.617919921875	-212.0478820800781	-588.1546020507812	1050.581420898438	-122.8977813720703	-320.6952209472656	1206.626831054688	5.486452102661133	-585.4578857421875	1174.638061523438	-124.8607940673828	-506.1455383300781	1429.723022460938	-64.01575469970703	-340.8583068847656	1324.814575195312	-2.233923673629761	-613.8536987304688	1315.2431640625	-15.85877895355225	-493.9412841796875	1393.954956054688	-171.8675384521484	-361.6869506835938	1403.248657226562	-191.4640197753906	-335.5000305175781	1292.175048828125	-294.023681640625	-314.4519348144531	1079.817749023438	-335.724609375	-416.8477172851562	1071.507080078125	-326.3976135253906	-279.3124084472656	871.5441284179688	-269.4690856933594	-286.4839477539062	861.1357421875	-342.4132690429688	-295.0392761230469	991.6559448242188	-339.0350952148438	-284.26318359375	702.5979614257812	-280.2433471679688	-285.8304748535156	779.3829345703125	-342.6029968261719	-266.2332763671875	781.016845703125	-274.1864929199219	-515.6892700195312	1385.270385742188	107.6852188110352	-570.168212890625	1325.77587890625	164.3063049316406	-625.5517578125	1042.66650390625	203.4466247558594	-659.1708374023438	1032.9521484375	145.2294158935547	-539.0552978515625	829.7716064453125	194.3037567138672	-624.9683837890625	823.3558959960938	217.8681945800781	-633.0531005859375	984.369140625	210.8205718994141	-564.2285766601562	671.5203857421875	189.2550506591797	-545.0248413085938	727.91650390625	204.2618865966797	-619.5244750976562	735.0272827148438	216.8839569091797	-481.8806457519531	1610.52978515625	50.39608001708984	-284.8349914550781	1634.01171875	-8.757478713989258	-354.2160339355469	1630.195556640625	101.8632659912109	-400.0727844238281	1620.596069335938	-107.966682434082	-407.8423156738281	824.3504638671875	-260.4777526855469	-585.9360961914062	839.0579223632812	94.640625	-467.7523498535156	881.6243286132812	76.26652526855469	-349.072998046875	861.848876953125	-148.9628143310547	-403.7177124023438	407.4168701171875	-255.7619171142578	-360.7405090332031	556.6472778320312	-245.4840393066406	-767.6643676757812	243.6003875732422	-415.9416198730469	-524.8204956054688	320.623779296875	-322.5137939453125	-706.0709838867188	43.44686508178711	-324.014892578125	-739.8072509765625	108.7159957885742	-301.5653381347656	-713.6681518554688	107.2687683105469	-410.6769104003906	-805.6502685546875	288.8732299804688	-375.2584838867188	-462.6335144042969	452.6888732910156	90.96551513671875	-527.0673217773438	707.8419189453125	124.5403671264648	-528.2352905273438	43.25834274291992	19.30345153808594	-474.3063049316406	304.8723754882812	83.17539215087891	-317.6421813964844	46.63785171508789	81.19115447998047	-356.3208618164062	50.00053024291992	19.53208351135254	-424.1600341796875	47.04936218261719	105.737060546875	-565.90283203125	36.1995849609375	-52.07805633544922	
198	1.97	-629.7202758789062	947.6517333984375	-80.21558380126953	-564.7654418945312	943.4349365234375	-206.6731414794922	-580.9168701171875	1051.536254882812	-117.320686340332	-313.4676513671875	1209.246948242188	9.64155101776123	-578.3758544921875	1175.750610351562	-119.0945358276367	-500.0663146972656	1431.4091796875	-59.10338592529297	-334.033447265625	1327.318481445312	1.614366412162781	-607.1074829101562	1316.746459960938	-9.948352813720703	-488.4954528808594	1395.323120117188	-166.867919921875	-356.5663452148438	1405.278076171875	-187.6441955566406	-330.8005065917969	1294.272705078125	-290.3523864746094	-308.7923583984375	1082.2763671875	-332.4586791992188	-410.6241149902344	1072.829711914062	-321.0319519042969	-269.6715087890625	874.89892578125	-266.5413208007812	-278.609619140625	864.0145874023438	-339.1694030761719	-288.53515625	994.2958984375	-335.9397277832031	-271.1080017089844	705.958984375	-276.6700134277344	-276.2216186523438	782.4528198242188	-339.1716003417969	-254.6354064941406	784.8543701171875	-271.3680419921875	-508.1107788085938	1387.3955078125	112.644905090332	-561.5437622070312	1327.830078125	170.1500091552734	-613.457763671875	1044.4697265625	212.155517578125	-648.0009765625	1033.575317382812	154.7373504638672	-522.5181274414062	833.644775390625	203.8458099365234	-607.9453735351562	825.4216918945312	228.5404663085938	-619.668701171875	986.0602416992188	220.12255859375	-543.4972534179688	674.8554077148438	201.4330596923828	-525.6180419921875	731.9307861328125	215.4290771484375	-600.1799926757812	737.2412719726562	228.7868347167969	-475.1281433105469	1612.7177734375	54.73257446289062	-278.078369140625	1636.050903320312	-4.437950611114502	-347.3937072753906	1632.200927734375	106.2234497070312	-393.3412780761719	1622.814208984375	-103.6214828491211	-397.2373046875	826.2484741210938	-253.4560394287109	-579.8091430664062	839.872802734375	99.66236877441406	-461.2807922363281	882.560302734375	82.79305267333984	-340.8551330566406	864.279052734375	-141.4462127685547	-382.9222412109375	409.9463195800781	-244.0711822509766	-342.9974975585938	559.626708984375	-236.0807037353516	-748.0250244140625	243.2969360351562	-400.9503173828125	-504.6285705566406	323.1659240722656	-309.9443359375	-677.0086059570312	46.01921844482422	-309.0586547851562	-713.2188110351562	110.0611267089844	-286.1226501464844	-688.602294921875	109.2532196044922	-395.6275329589844	-787.4569702148438	287.2731628417969	-360.1694946289062	-461.29736328125	452.1658630371094	93.28013610839844	-522.6033935546875	707.9429321289062	128.7492218017578	-528.2073974609375	43.33391952514648	19.38138389587402	-473.5718078613281	304.4151000976562	84.59563446044922	-317.7003173828125	46.47280883789062	81.49856567382812	-356.3675842285156	50.02941131591797	19.79373550415039	-424.2877502441406	46.85283279418945	106.0591125488281	-565.8120727539062	36.45646667480469	-52.12331390380859	
199	1.98	-621.8861694335938	948.8829345703125	-75.2750244140625	-556.0057983398438	944.3214721679688	-201.4461517333984	-573.6370849609375	1052.4716796875	-111.8613052368164	-306.2727355957031	1211.895629882812	13.7573184967041	-571.3646240234375	1176.864990234375	-113.4424819946289	-494.0402526855469	1433.063598632812	-54.31496047973633	-327.2644348144531	1329.843872070312	5.374827861785889	-600.4293823242188	1318.2451171875	-4.208125114440918	-483.0775756835938	1396.646240234375	-161.9734497070312	-351.5216979980469	1407.295776367188	-183.9350891113281	-326.212890625	1296.362915039062	-286.7958068847656	-303.3132934570312	1084.70654296875	-329.3133239746094	-404.6065979003906	1074.1416015625	-315.6778564453125	-260.1097717285156	878.3003540039062	-263.8191833496094	-270.9769897460938	866.8729858398438	-336.0706176757812	-282.2233276367188	996.9151000976562	-332.9919128417969	-258.060791015625	709.4209594726562	-273.27978515625	-266.8959350585938	785.5160522460938	-335.8748779296875	-243.16162109375	788.746826171875	-268.8087768554688	-500.6401977539062	1389.500854492188	117.4458770751953	-553.0035400390625	1329.861938476562	175.8140411376953	-601.1914672851562	1046.359619140625	220.7922668457031	-636.6539916992188	1034.250732421875	164.2144927978516	-505.96875	837.6671752929688	213.2539520263672	-590.77783203125	827.723876953125	239.2010192871094	-606.1084594726562	987.881103515625	229.3649749755859	-522.6932373046875	678.5100708007812	213.6289825439453	-506.1416931152344	736.2288208007812	226.5311431884766	-580.6945190429688	739.770751953125	240.7387084960938	-468.3327026367188	1614.954956054688	58.90576171875	-271.300048828125	1638.020263671875	-0.3539779484272003	-340.5096435546875	1634.20166015625	110.3744049072266	-386.6036682128906	1624.983154296875	-99.4884033203125	-386.6322937011719	828.3533935546875	-246.4883880615234	-573.8250122070312	840.6195678710938	104.5149383544922	-455.0262756347656	883.4481201171875	89.29705810546875	-332.8117370605469	866.7608642578125	-133.8506622314453	-362.2652893066406	412.8389892578125	-232.2250366210938	-325.2959594726562	562.9973754882812	-226.5071716308594	-727.671630859375	241.4522705078125	-385.6843872070312	-484.2188720703125	325.4791870117188	-297.0864868164062	-646.8806762695312	48.20701599121094	-293.00634765625	-685.7918701171875	110.7613372802734	-269.9952087402344	-662.3609008789062	110.2415618896484	-379.7485656738281	-768.601806640625	284.14892578125	-345.013671875	-460.0758972167969	451.6978759765625	95.36444854736328	-518.2178344726562	707.9984130859375	132.7682189941406	-528.16455078125	43.44664001464844	19.44047737121582	-472.87060546875	304.0293884277344	85.83745574951172	-317.7625427246094	46.3321533203125	81.75179290771484	-356.399658203125	50.03024673461914	20.00480651855469	-424.38671875	46.69620132446289	106.3091201782227	-565.7362060546875	36.74018859863281	-52.1552734375	
200	1.99	-614.0399780273438	950.100341796875	-70.47966766357422	-547.2233276367188	945.265869140625	-196.3701171875	-566.2866821289062	1053.3896484375	-106.4974136352539	-299.1097717285156	1214.541748046875	17.86400985717773	-564.4395751953125	1177.961669921875	-107.9070587158203	-488.0482177734375	1434.671752929688	-49.64035797119141	-320.5475158691406	1332.358764648438	9.077236175537109	-593.8052368164062	1319.723754882812	1.385494112968445	-477.6709289550781	1397.909790039062	-157.166015625	-346.5203552246094	1409.28125	-180.3031616210938	-321.7091064453125	1298.430786132812	-283.3242492675781	-297.9691772460938	1087.094116210938	-326.2554931640625	-398.7553100585938	1075.434204101562	-310.3695373535156	-250.6611633300781	881.7113037109375	-261.24853515625	-263.5250244140625	869.6875610351562	-333.07080078125	-276.0503234863281	999.5015869140625	-330.1484985351562	-245.2570190429688	712.9467163085938	-270.0290832519531	-257.8364562988281	788.5376586914062	-332.6729125976562	-231.9065399169922	792.63671875	-266.4399719238281	-493.2846374511719	1391.582763671875	122.1066589355469	-544.5734252929688	1331.880493164062	181.3059997558594	-588.7918090820312	1048.34130859375	229.3233337402344	-625.1259155273438	1034.977172851562	173.6045074462891	-489.4479064941406	841.8192138671875	222.5159149169922	-573.510498046875	830.26123046875	249.8148956298828	-592.4097290039062	989.838134765625	238.5129547119141	-501.8838500976562	682.4683227539062	225.7700042724609	-486.6491394042969	740.7890625	237.5208892822266	-561.1265869140625	742.6150512695312	252.6758575439453	-461.486083984375	1617.208251953125	62.93685531616211	-264.4932556152344	1639.892700195312	3.515968084335327	-333.558349609375	1636.1796875	114.3338928222656	-379.8582153320312	1627.063232421875	-95.53961181640625	-376.0572509765625	830.59765625	-239.5670318603516	-567.936767578125	841.3291015625	109.2038345336914	-448.9461364746094	884.2939453125	95.72989654541016	-324.9309692382812	869.2557373046875	-126.2341156005859	-341.809326171875	416.0018310546875	-220.2139434814453	-307.6899719238281	566.7007446289062	-216.7138061523438	-706.6058349609375	238.1544952392578	-370.1524047851562	-463.6272583007812	327.4385375976562	-283.931396484375	-615.8104248046875	49.92173004150391	-276.1595458984375	-657.5911254882812	110.7845993041992	-253.3510284423828	-635.0478515625	110.3451995849609	-363.2505493164062	-749.0859985351562	279.5351257324219	-329.7462463378906	-458.9232482910156	451.2931518554688	97.21663665771484	-513.8204345703125	708.0422973632812	136.6100769042969	-528.1134643554688	43.59603118896484	19.48505401611328	-472.1835021972656	303.7157897949219	86.90269470214844	-317.8207397460938	46.22085952758789	81.95213317871094	-356.4159545898438	50.00942230224609	20.16692733764648	-424.4561767578125	46.58015060424805	106.4865417480469	-565.6737060546875	37.04985809326172	-52.17535018920898	
